<svg width="55" height="83" viewBox="0 0 55 83" fill="none" xmlns="http://www.w3.org/2000/svg">
<path d="M27.4994 20.146C23.9024 20.146 20.9746 23.0729 20.9746 26.6699C20.9746 30.267 23.9015 33.193 27.4994 33.193C31.0956 33.193 34.0216 30.2678 34.0216 26.6699C34.0216 23.0737 31.0956 20.146 27.4994 20.146Z" fill="#FF31C6"/>
<path d="M27.4996 0C12.3116 0 0 12.3125 0 27.5004C0 42.6883 27.4996 82.9578 27.4996 82.9578C27.4996 82.9578 55 42.6883 55 27.5004C55 12.3125 42.6875 0 27.4996 0ZM27.5013 41.5806C19.2792 41.5806 12.5905 34.8902 12.5905 26.6698C12.5905 18.4477 19.2792 11.7591 27.5013 11.7591C35.7225 11.7591 42.4112 18.4477 42.4112 26.6698C42.4112 34.8902 35.7216 41.5806 27.5013 41.5806Z" fill="#FF31C6"/>
</svg>
