<svg width="55" height="55" viewBox="0 0 55 55" fill="none" xmlns="http://www.w3.org/2000/svg">
<path d="M27.5 55C20.1545 55 13.2486 52.1395 8.05453 46.9454C2.86044 41.7513 0 34.8455 0 27.5C0 20.1545 2.86044 13.2486 8.05453 8.05453C13.2486 2.86044 20.1545 0 27.5 0C34.8455 0 41.7515 2.86044 46.9455 8.05453C52.1395 13.2486 55 20.1545 55 27.5C55 34.8455 52.1395 41.7514 46.9455 46.9454C41.7515 52.1395 34.8455 55 27.5 55ZM27.5 2.2C13.5496 2.2 2.2 13.5496 2.2 27.5C2.2 41.4504 13.5496 52.8 27.5 52.8C41.4504 52.8 52.8 41.4504 52.8 27.5C52.8 13.5496 41.4504 2.2 27.5 2.2Z" fill="#FF31C6"/>
<path d="M36.3087 37.4C36.0271 37.4 35.7457 37.2926 35.5309 37.0779L26.7309 28.2779C26.5246 28.0715 26.4087 27.7918 26.4087 27.5V9.90005C26.4087 9.29252 26.9012 8.80005 27.5087 8.80005C28.1161 8.80005 28.6087 9.29252 28.6087 9.90005V27.0444L37.0865 35.5222C37.5161 35.9518 37.5161 36.6483 37.0865 37.078C36.8717 37.2926 36.5903 37.4 36.3087 37.4Z" fill="#FF31C6"/>
</svg>
